# xmcd
#
# Track frame offsets: 
#        150
#        14917
#        24012
#        34654
#        47701
#        60048
#        78342
#        102517
#        115409
#        136686
#        146968
#        166350
#        180639
#        195939
#        216268
#        227723
#        238675
#        253699
#        289431
#        301803
#
# Disc length: 4339 seconds
#
# Revision: 0
# Processed by: cddbd v1.5.1PL0 Copyright (c) Steve Scherf et al.
# Submitted via: ExactAudioCopy v0.95a5
#
DISCID=1410f114
DTITLE=Gintrowski, Kaczmarski, £apiñski - Mury w Muzeum Raju
DYEAR=1991
DGENRE=Ambitna
TTITLE0=Modlitwa o wschodzie s³oñca
TTITLE1=Szturm
TTITLE2=Str¹cenie anio³ów
TTITLE3=Krajobraz po uczcie
TTITLE4=Samosierra (Micha³kowski)
TTITLE5=Zes³anie studentów
TTITLE6=Wigilia na Syberii
TTITLE7=Dziady
TTITLE8=Hiob
TTITLE9=Chrystus i kupcy
TTITLE10=Pejza¿ z szubienic¹
TTITLE11=Wiosna 1905r.
TTITLE12=Kanapka z cz³owieka
TTITLE13=Smiech
TTITLE14=Karmaniola
TTITLE15=Pokolenie
TTITLE16=Arka Noego
TTITLE17=Epitafium dla S. Jesienina
TTITLE18=Upadek Zwi¹zku Radzieckiego
TTITLE19=Mury
EXTD=
EXTT0=
EXTT1=
EXTT2=
EXTT3=
EXTT4=
EXTT5=
EXTT6=
EXTT7=
EXTT8=
EXTT9=
EXTT10=
EXTT11=
EXTT12=
EXTT13=
EXTT14=
EXTT15=
EXTT16=
EXTT17=
EXTT18=
EXTT19=
PLAYORDER=
